<svg id="Group_1_copy" data-name="Group 1 copy" xmlns="http://www.w3.org/2000/svg" width="103" height="93" viewBox="0 0 103 93">
  <defs>
    <style>
      .cls-1 {
        fill: #2c2c2c;
      }

      .cls-1, .cls-2, .cls-3 {
        fill-rule: evenodd;
      }

      .cls-2 {
        fill: #ff4038;
      }

      .cls-3 {
        fill: #302d46;
      }
    </style>
  </defs>
  <path class="cls-1" d="M42,1l6,9h8l6-9"/>
  <path id="_" data-name="{  }" class="cls-2" d="M5,51.719a7.485,7.485,0,0,1,2.466,4.492,42.285,42.285,0,0,1,.781,9.277V75.693q0,17.187,15.186,17.188V85.8q-5.079-.391-6.372-2.783T15.77,71.4V64.414q0-7.958-1.611-11.987a9.738,9.738,0,0,0-5.615-5.64,9.743,9.743,0,0,0,5.615-5.615q1.611-4,1.611-11.963V22.178q0-9.179,1.294-11.6t6.372-2.759V0.693Q8.25,0.693,8.25,17.881V28.086A41.344,41.344,0,0,1,7.079,38.779q-1.172,4.3-7.031,4.3V50.5A8.406,8.406,0,0,1,5,51.719Zm92.783-9.863a7.453,7.453,0,0,1-2.466-4.468,42.178,42.178,0,0,1-.781-9.3V17.881Q94.54,0.694,79.354.693V7.822Q84.4,8.165,85.71,10.581t1.31,11.6v7.031q0,7.959,1.6,11.963a9.688,9.688,0,0,0,5.629,5.615,9.683,9.683,0,0,0-5.629,5.64q-1.6,4.028-1.6,11.987V71.4q0,9.229-1.31,11.621T79.354,85.8v7.08q15.185,0,15.186-17.187V65.488A41.356,41.356,0,0,1,95.711,54.8q1.172-4.3,7.032-4.3V43.076A8.4,8.4,0,0,1,97.787,41.856Z"/>
  <path class="cls-3" d="M48,11h8l6,62-9,7L43,72Z"/>
  <path id="V" class="cls-2" d="M56.756,68.815a30.427,30.427,0,0,0,5.475-3.725,51.73,51.73,0,0,0,5.575-5.45,52.638,52.638,0,0,0,4.975-6.6,39.89,39.89,0,0,0,3.65-7.175,12.945,12.945,0,0,0,.95-4.55,7.131,7.131,0,0,0-.85-3.65,7.576,7.576,0,0,0-2-2.3,6.428,6.428,0,0,0-2.1-1.1q-0.2-.049-0.375-0.075a2.125,2.125,0,0,0-.275-0.025q-0.851,0-.85.5a0.811,0.811,0,0,0,.325.55,1.816,1.816,0,0,0,.975.4q0.6,0.1,1.05.2a1.361,1.361,0,0,1,.8.6,4.59,4.59,0,0,1,.55,1.8,10.931,10.931,0,0,1,.15,1.8,20.6,20.6,0,0,1-2.4,8.875,46.541,46.541,0,0,1-6.6,9.825q-0.4.45-1.45,1.575t-2.5,2.55q-1.451,1.425-3.025,2.725a25.569,25.569,0,0,1-3.025,2.175,5.072,5.072,0,0,1-2.5.875q-1.55,0-1.55-2.35a8.321,8.321,0,0,1,.05-0.875q0.049-.475.15-1.025a55.3,55.3,0,0,1,1.3-5.475q0.9-3.175,2.2-6.7a70.612,70.612,0,0,1,2.9-6.775,40.617,40.617,0,0,0,2.575-6.525,22.627,22.627,0,0,0,1.025-6.475,11.354,11.354,0,0,0-1.1-5.05,7.128,7.128,0,0,0-3.75-3.4,13.473,13.473,0,0,0-5.45-1.05,23.631,23.631,0,0,0-7.25,1.225,33.538,33.538,0,0,0-7.45,3.5,32.715,32.715,0,0,0-6.6,5.425,24.246,24.246,0,0,0-4.6,6.95,19.246,19.246,0,0,0-1.175,3.6,16,16,0,0,0-.375,3.35,12.131,12.131,0,0,0,1.5,6.125,11.053,11.053,0,0,0,3.9,4.075,9.611,9.611,0,0,0,5.05,1.45,12.126,12.126,0,0,0,4.9-1.125,19.333,19.333,0,0,0,4.75-3,16.846,16.846,0,0,0,3.575-4.175,9.058,9.058,0,0,0,1.375-4.7,6.12,6.12,0,0,0-1.15-3.75,3.761,3.761,0,0,0-3.2-1.55,6.645,6.645,0,0,0-2.7.65,1.518,1.518,0,0,0-.55.375,0.656,0.656,0,0,0-.2.325c0,0.1.083,0.15,0.25,0.15a2.955,2.955,0,0,0,.8-0.15,3.555,3.555,0,0,1,.775-0.2,5.576,5.576,0,0,1,.725-0.05,2.465,2.465,0,0,1,2.35,1.275,6.089,6.089,0,0,1,.7,2.975,9.382,9.382,0,0,1-1,4.15,14.187,14.187,0,0,1-2.675,3.75,13.85,13.85,0,0,1-3.75,2.725,9.344,9.344,0,0,1-4.175,1.025,8.709,8.709,0,0,1-4.075-1,7.771,7.771,0,0,1-3.125-3.025,9.711,9.711,0,0,1-1.2-5.025,16.041,16.041,0,0,1,.325-3.1,25.374,25.374,0,0,1,.975-3.5,20.722,20.722,0,0,1,2.925-5.325,31.383,31.383,0,0,1,4.425-4.775,34.59,34.59,0,0,1,5.3-3.85,28.426,28.426,0,0,1,5.65-2.575,17.652,17.652,0,0,1,5.45-.925,11.627,11.627,0,0,1,2.775.325,8.086,8.086,0,0,1,2.425,1.025,3.038,3.038,0,0,1,1.35,1.725,8.465,8.465,0,0,1,.4,2.725,21.107,21.107,0,0,1-.625,4.8q-0.626,2.651-1.525,5.275t-1.8,4.725a120.139,120.139,0,0,0-4.7,12.65,31.373,31.373,0,0,0-1.55,8.35q0,3.85,2.4,4.3a1.665,1.665,0,0,0,.4.05h0.45A10.459,10.459,0,0,0,56.756,68.815Z"/>
</svg>
