<svg id="Group_1_copy" data-name="Group 1 copy" xmlns="http://www.w3.org/2000/svg" width="103" height="93" viewBox="0 0 103 93">
  <defs>
    <style>
      .cls-1 {
        fill: #2c2c2c;
      }

      .cls-1, .cls-2, .cls-3 {
        fill-rule: evenodd;
      }

      .cls-2 {
        fill: #ff4038;
      }

      .cls-3 {
        fill: #302d46;
      }
    </style>
  </defs>
  <path class="cls-1" d="M42,1l6,9h8l6-9"/>
  <path id="_" data-name="{  }" class="cls-2" d="M5,51.719a7.485,7.485,0,0,1,2.466,4.492,42.285,42.285,0,0,1,.781,9.277V75.693q0,17.187,15.186,17.188V85.8q-5.079-.391-6.372-2.783T15.77,71.4V64.414q0-7.958-1.611-11.987a9.738,9.738,0,0,0-5.615-5.64,9.743,9.743,0,0,0,5.615-5.615q1.611-4,1.611-11.963V22.178q0-9.179,1.294-11.6t6.372-2.759V0.693Q8.25,0.693,8.25,17.881V28.086A41.346,41.346,0,0,1,7.079,38.779q-1.172,4.3-7.031,4.3V50.5A8.406,8.406,0,0,1,5,51.719Zm92.783-9.863a7.453,7.453,0,0,1-2.466-4.468,42.178,42.178,0,0,1-.781-9.3V17.881Q94.54,0.694,79.354.693V7.822Q84.4,8.165,85.71,10.581t1.31,11.6v7.031q0,7.959,1.6,11.963a9.687,9.687,0,0,0,5.629,5.615,9.683,9.683,0,0,0-5.629,5.64q-1.6,4.028-1.6,11.987V71.4q0,9.229-1.31,11.621T79.354,85.8v7.08q15.185,0,15.186-17.187V65.488A41.356,41.356,0,0,1,95.711,54.8q1.172-4.3,7.032-4.3V43.076A8.4,8.4,0,0,1,97.787,41.856Z"/>
  <path class="cls-3" d="M48,11h8l6,62-9,7L43,72Z"/>
  <path id="V" class="cls-2" d="M56.756,68.815a30.427,30.427,0,0,0,5.475-3.725,51.73,51.73,0,0,0,5.575-5.45,52.638,52.638,0,0,0,4.975-6.6,39.89,39.89,0,0,0,3.65-7.175,12.945,12.945,0,0,0,.95-4.55,7.131,7.131,0,0,0-.85-3.65,7.576,7.576,0,0,0-2-2.3,6.428,6.428,0,0,0-2.1-1.1q-0.2-.049-0.375-0.075a2.125,2.125,0,0,0-.275-0.025q-0.851,0-.85.5a0.811,0.811,0,0,0,.325.55,1.816,1.816,0,0,0,.975.4q0.6,0.1,1.05.2a1.361,1.361,0,0,1,.8.6,4.59,4.59,0,0,1,.55,1.8,10.931,10.931,0,0,1,.15,1.8,20.6,20.6,0,0,1-2.4,8.875,46.541,46.541,0,0,1-6.6,9.825q-0.4.45-1.45,1.575t-2.5,2.55q-1.451,1.425-3.025,2.725a25.569,25.569,0,0,1-3.025,2.175,5.072,5.072,0,0,1-2.5.875q-1.55,0-1.55-2.35a8.321,8.321,0,0,1,.05-0.875q0.049-.475.15-1.025a55.3,55.3,0,0,1,1.3-5.475q0.9-3.175,2.2-6.7a70.612,70.612,0,0,1,2.9-6.775,40.617,40.617,0,0,0,2.575-6.525,22.627,22.627,0,0,0,1.025-6.475,11.354,11.354,0,0,0-1.1-5.05,7.128,7.128,0,0,0-3.75-3.4,13.473,13.473,0,0,0-5.45-1.05,23.631,23.631,0,0,0-7.25,1.225,33.538,33.538,0,0,0-7.45,3.5,32.715,32.715,0,0,0-6.6,5.425,24.246,24.246,0,0,0-4.6,6.95,19.246,19.246,0,0,0-1.175,3.6,16,16,0,0,0-.375,3.35,12.131,12.131,0,0,0,1.5,6.125,11.053,11.053,0,0,0,3.9,4.075,9.611,9.611,0,0,0,5.05,1.45,12.126,12.126,0,0,0,4.9-1.125,19.333,19.333,0,0,0,4.75-3,16.846,16.846,0,0,0,3.575-4.175,9.058,9.058,0,0,0,1.375-4.7,6.12,6.12,0,0,0-1.15-3.75,3.761,3.761,0,0,0-3.2-1.55,6.645,6.645,0,0,0-2.7.65,1.518,1.518,0,0,0-.55.375,0.656,0.656,0,0,0-.2.325c0,0.1.083,0.15,0.25,0.15a2.955,2.955,0,0,0,.8-0.15,3.555,3.555,0,0,1,.775-0.2,5.576,5.576,0,0,1,.725-0.05,2.465,2.465,0,0,1,2.35,1.275,6.089,6.089,0,0,1,.7,2.975,9.382,9.382,0,0,1-1,4.15,14.187,14.187,0,0,1-2.675,3.75,13.85,13.85,0,0,1-3.75,2.725,9.344,9.344,0,0,1-4.175,1.025,8.709,8.709,0,0,1-4.075-1,7.771,7.771,0,0,1-3.125-3.025,9.711,9.711,0,0,1-1.2-5.025,16.041,16.041,0,0,1,.325-3.1,25.374,25.374,0,0,1,.975-3.5,20.722,20.722,0,0,1,2.925-5.325,31.383,31.383,0,0,1,4.425-4.775,34.59,34.59,0,0,1,5.3-3.85,28.426,28.426,0,0,1,5.65-2.575,17.652,17.652,0,0,1,5.45-.925,11.627,11.627,0,0,1,2.775.325,8.086,8.086,0,0,1,2.425,1.025,3.038,3.038,0,0,1,1.35,1.725,8.465,8.465,0,0,1,.4,2.725,21.107,21.107,0,0,1-.625,4.8q-0.626,2.651-1.525,5.275t-1.8,4.725a120.139,120.139,0,0,0-4.7,12.65,31.373,31.373,0,0,0-1.55,8.35q0,3.85,2.4,4.3a1.66,1.66,0,0,0,.4.05h0.45A10.459,10.459,0,0,0,56.756,68.815Z"/>
  <path id="Prasad" class="cls-1" d="M24.224,77.878v14.8h2.959V87.436h0.811a5.732,5.732,0,0,0,2.116-.354,3.867,3.867,0,0,0,1.484-1.013,4.239,4.239,0,0,0,.879-1.575,6.753,6.753,0,0,0,.29-2.04,4.683,4.683,0,0,0-1.142-3.407,4.682,4.682,0,0,0-3.49-1.17H24.224Zm5.133,2.942a2.4,2.4,0,0,1,.479,1.656,3.732,3.732,0,0,1-.242,1.468,1.6,1.6,0,0,1-.716.81,2.48,2.48,0,0,1-1.179.253H27.182V80.3h0.726A1.872,1.872,0,0,1,29.357,80.819Zm9.375,0.6a2.975,2.975,0,0,0-.811.769,5.223,5.223,0,0,0-.579,1.013H37.205l-0.4-1.863H34.647V92.682h2.8V86.9a4.95,4.95,0,0,1,.132-1.19,2.806,2.806,0,0,1,.39-0.911,1.779,1.779,0,0,1,.637-0.582,1.8,1.8,0,0,1,.863-0.2,4.459,4.459,0,0,1,.542.03,1.93,1.93,0,0,1,.458.111l0.253-2.876a4.978,4.978,0,0,0-.516-0.116,2.86,2.86,0,0,0-.453-0.035A1.87,1.87,0,0,0,38.732,81.422Zm5.454-.051a6.8,6.8,0,0,0-1.758.709l0.779,2.015a7.163,7.163,0,0,1,1.316-.6,3.645,3.645,0,0,1,1.105-.192,1.086,1.086,0,0,1,.984.461,2.585,2.585,0,0,1,.3,1.392v0.456l-1.463.061a4.487,4.487,0,0,0-2.906.982,3.41,3.41,0,0,0-1.021,2.683,5.338,5.338,0,0,0,.274,1.721,2.87,2.87,0,0,0,.879,1.316,2.388,2.388,0,0,0,1.585.506A3.548,3.548,0,0,0,45.47,92.7a2.629,2.629,0,0,0,.921-0.572,4.825,4.825,0,0,0,.763-0.962h0.063l0.453,1.519h2.053v-7.5a4.457,4.457,0,0,0-.9-3.033,3.308,3.308,0,0,0-2.616-1.018A8.193,8.193,0,0,0,44.186,81.371Zm2.727,7.078a2.905,2.905,0,0,1-.421,1.661,1.267,1.267,0,0,1-1.084.618,0.9,0.9,0,0,1-.784-0.375,1.951,1.951,0,0,1-.269-1.134,1.743,1.743,0,0,1,.437-1.281,1.932,1.932,0,0,1,1.332-.481l0.79-.04v1.033Zm11.165-.587a3.527,3.527,0,0,0-.858-1.1,7.513,7.513,0,0,0-1.274-.881q-0.726-.425-1.1-0.683a1.7,1.7,0,0,1-.5-0.471,0.973,0.973,0,0,1-.126-0.506,0.82,0.82,0,0,1,.274-0.653,1.169,1.169,0,0,1,.79-0.238,3.046,3.046,0,0,1,1.137.223,6.289,6.289,0,0,1,1.063.547l0.769-2.076a6.74,6.74,0,0,0-1.5-.663,5.664,5.664,0,0,0-1.627-.228,3.853,3.853,0,0,0-2.653.861,3,3,0,0,0-.969,2.359,3.637,3.637,0,0,0,.274,1.448,3.444,3.444,0,0,0,.79,1.134,5.466,5.466,0,0,0,1.242.881,7.5,7.5,0,0,1,1.137.643,1.643,1.643,0,0,1,.505.526,1.155,1.155,0,0,1,.126.532,0.945,0.945,0,0,1-.316.77,1.378,1.378,0,0,1-.905.263,4.455,4.455,0,0,1-1.516-.268,6.161,6.161,0,0,1-1.316-.643v2.612a6.331,6.331,0,0,0,1.458.481,8.171,8.171,0,0,0,1.627.157,4.742,4.742,0,0,0,2.037-.4,2.85,2.85,0,0,0,1.3-1.185,3.864,3.864,0,0,0,.447-1.939A3.35,3.35,0,0,0,58.078,87.862Zm4.174-6.491a6.8,6.8,0,0,0-1.758.709l0.779,2.015a7.162,7.162,0,0,1,1.316-.6,3.645,3.645,0,0,1,1.105-.192,1.086,1.086,0,0,1,.984.461,2.586,2.586,0,0,1,.3,1.392v0.456l-1.463.061a4.487,4.487,0,0,0-2.906.982,3.41,3.41,0,0,0-1.021,2.683,5.338,5.338,0,0,0,.274,1.721,2.87,2.87,0,0,0,.879,1.316,2.388,2.388,0,0,0,1.584.506,3.548,3.548,0,0,0,1.211-.187,2.628,2.628,0,0,0,.921-0.572,4.825,4.825,0,0,0,.763-0.962h0.063l0.453,1.519H67.79v-7.5a4.456,4.456,0,0,0-.9-3.033,3.308,3.308,0,0,0-2.616-1.018A8.193,8.193,0,0,0,62.252,81.371Zm2.727,7.078a2.9,2.9,0,0,1-.421,1.661,1.267,1.267,0,0,1-1.084.618,0.9,0.9,0,0,1-.784-0.375,1.951,1.951,0,0,1-.269-1.134,1.743,1.743,0,0,1,.437-1.281,1.932,1.932,0,0,1,1.332-.481l0.79-.04v1.033Zm9.265,4.283a2.41,2.41,0,0,0,.795-0.471,4.145,4.145,0,0,0,.7-0.825h0.168l0.39,1.246h2.243V76.926h-2.8v3.939q0,0.324.026,0.795t0.058,1.129H75.718a3.5,3.5,0,0,0-.69-0.927,2.684,2.684,0,0,0-.863-0.552,2.828,2.828,0,0,0-3.522,1.367A8.7,8.7,0,0,0,69.748,87a8.73,8.73,0,0,0,.895,4.324,2.839,2.839,0,0,0,2.6,1.559A3.009,3.009,0,0,0,74.244,92.732ZM72.97,89.72a7.489,7.489,0,0,1-.379-2.739,7.237,7.237,0,0,1,.363-2.618,1.2,1.2,0,0,1,1.121-.886,1.327,1.327,0,0,1,1.269.775,5.7,5.7,0,0,1,.395,2.456v0.648a5.645,5.645,0,0,1-.411,2.481,1.333,1.333,0,0,1-1.253.79A1.214,1.214,0,0,1,72.97,89.72Z"/>
</svg>
